#!OML:ASF E:\VariousWalksJay\Project 1\Capture day 1\Session 1\Actor2.ASF
:FULLY-SPECIFIED
:DEGREES
1138
root -6.23027 17.6861 -22.1614 369.545 -84.0375 -365.926
lowerback -1.83578 -2.3453 9.94734
upperback 3.29487 -3.76222 3.07026
thorax 4.07028 -1.65137 -2.54143
lowerneck -10.0889 6.16827 5.4626
upperneck 7.99753 8.09457 -5.73018
head 4.49692 3.83154 -2.06805
rclavicle 5.10877e-014 -4.29375e-014
rhumerus -50.7873 -21.7003 -70.5986
rradius 15.1303
rwrist 14.7474
rhand 5.64624 -10.9206
rfingers 7.12502
rthumb 30.9862 -38.3247
lclavicle 5.10877e-014 -4.29375e-014
lhumerus -19.5916 -22.0746 75.4713
lradius 12.7517
lwrist 0.786584
lhand -4.59428 -7.03155
lfingers 7.12502
lthumb 21.1832 21.8311
rfemur -31.3792 -21.3742 27.0907
rtibia 31.9427
rfoot -33.2185 -34.4708
rtoes 35.4806
lfemur 7.21141 18.956 -18.1602
ltibia 25.6862
lfoot -19.8071 36.6474
ltoes -2.08896
1139
root -6.14599 17.6701 -22.1426 369.655 -83.1668 -366.12
lowerback -1.77459 -2.22836 9.78084
upperback 3.29764 -3.58928 3.05857
thorax 4.06503 -1.57004 -2.45336
lowerneck -10.1169 6.08312 5.38497
upperneck 7.73129 7.97508 -5.70255
head 4.40875 3.77398 -2.05964
rclavicle 1.03368e-014 -3.81667e-014
rhumerus -49.9187 -20.5359 -71.7078
rradius 15.3569
rwrist 14.6695
rhand 4.95606 -10.7525
rfingers 7.12502
rthumb 30.3281 -38.2799
lclavicle 1.03368e-014 -3.81667e-014
lhumerus -19.0337 -21.1882 74.8714
lradius 12.8489
lwrist 0.370133
lhand -4.72824 -7.05847
lfingers 7.12502
lthumb 21.0545 21.8185
rfemur -31.5127 -21.4173 26.9916
rtibia 31.9491
rfoot -34.0178 -34.7446
rtoes 36.1439
lfemur 7.24147 18.4604 -18.2995
ltibia 25.0962
lfoot -21.2305 36.8631
ltoes -2.53699
1140
root -6.06022 17.6542 -22.1232 369.644 -82.2979 -366.186
lowerback -1.712 -2.11445 9.61146
upperback 3.30104 -3.41942 3.03361
thorax 4.05771 -1.48996 -2.3775
lowerneck -10.1475 5.99069 5.31475
upperneck 7.47059 7.84424 -5.66891
head 4.32236 3.71124 -2.05119
rclavicle -1.07344e-014 -3.02153e-014
rhumerus -49.0458 -19.4374 -72.6516
rradius 15.5595
rwrist 14.6373
rhand 4.13007 -10.578
rfingers 7.12502
rthumb 29.5399 -38.2476
lclavicle -1.07344e-014 -3.02153e-014
lhumerus -18.5006 -20.3798 74.3461
lradius 13.0188
lwrist 0.0903497
lhand -4.89092 -7.0683
lfingers 7.12502
lthumb 20.8982 21.826
rfemur -31.6511 -21.482 26.8782
rtibia 31.9439
rfoot -34.8094 -34.9898
rtoes 36.7759
lfemur 7.23107 17.9274 -18.4404
ltibia 24.5828
lfoot -22.4913 36.9924
ltoes -2.90882
1141
root -5.97334 17.6387 -22.103 369.628 -81.4227 -366.236
lowerback -1.66016 -2.00499 9.45771
upperback 3.30586 -3.25698 2.99585
thorax 4.05502 -1.41243 -2.32421
lowerneck -10.1774 5.8916 5.25657
upperneck 7.21254 7.70183 -5.62369
head 4.23623 3.64369 -2.04185
rclavicle -1.09332e-014 1.59028e-015
rhumerus -48.1652 -18.4277 -73.4246
rradius 15.7283
rwrist 14.6494
rhand 3.16535 -10.4006
rfingers 7.12502
rthumb 28.6185 -38.2293
lclavicle -1.09332e-014 1.59028e-015
lhumerus -18.0033 -19.7038 73.9032
lradius 13.2636
lwrist -0.0127645
lhand -5.08651 -7.07912
lfingers 7.12502
lthumb 20.7103 21.8358
rfemur -31.795 -21.5748 26.7627
rtibia 31.9234
rfoot -35.5895 -35.2072
rtoes 37.3766
lfemur 7.17681 17.3589 -18.5689
ltibia 24.1465
lfoot -23.5884 37.0349
ltoes -3.22242
1142
root -5.88538 17.6234 -22.0825 369.754 -80.5416 -366.431
lowerback -1.60798 -1.8959 9.34012
upperback 3.31604 -3.09699 2.95305
thorax 4.05527 -1.33467 -2.29611
lowerneck -10.1996 5.78044 5.20667
upperneck 6.94643 7.54045 -5.56103
head 4.14518 3.56807 -2.03011
rclavicle -2.16675e-014 -9.54166e-015
rhumerus -47.2756 -17.5257 -74.0239
rradius 15.8603
rwrist 14.6898
rhand 2.07363 -10.2259
rfingers 7.12502
rthumb 27.575 -38.2258
lclavicle -2.16675e-014 -9.54166e-015
lhumerus -17.4332 -18.9672 73.4937
lradius 13.3972
lwrist -0.135597
lhand -5.34019 -7.18696
lfingers 7.12502
lthumb 20.4665 21.7544
rfemur -31.9236 -21.6681 26.6633
rtibia 31.8793
rfoot -36.3698 -35.4199
rtoes 37.9386
lfemur 7.08683 16.7774 -18.6454
ltibia 23.7974
lfoot -24.5024 36.9919
ltoes -3.51087
